# xmcd
#
# Track frame offsets:
#	150
#	15225
#	32955
#	44600
#	57302
#	73260
#	88785
#	103467
#	118917
#	132012
#
# Disc length: 1975 seconds
#
# Revision: 1
# Processed by: cddbd v1.5.2PL0 Copyright (c) Steve Scherf et al.
# Submitted via: audiograbber 1.83.01
#
DISCID=9207b50a
DTITLE=Anne Minnery - Where Do I Fit In
DYEAR=1999
DGENRE=Country
TTITLE0=The Caged Bird´s Free
TTITLE1=Where Is Kris Kristofferson
TTITLE2=Watch The Little Girl Dance
TTITLE3=Let´s Check It Out
TTITLE4=In Silence
TTITLE5=His Name Is John
TTITLE6=The Onodaga Drum
TTITLE7=Mr Pioano Man
TTITLE8=Going On Home
TTITLE9=If Not For You
EXTD=
EXTT0=
EXTT1=
EXTT2=
EXTT3=
EXTT4=
EXTT5=
EXTT6=
EXTT7=
EXTT8=
EXTT9=
PLAYORDER=
